<?xml version="1.0" standalone="no"?>
<!DOCTYPE svg PUBLIC "-//W3C//DTD SVG 20010904//EN"
 "http://www.w3.org/TR/2001/REC-SVG-20010904/DTD/svg10.dtd">
<svg version="1.0" xmlns="http://www.w3.org/2000/svg"
 width="250.000000pt" height="250.000000pt" viewBox="0 0 250.000000 250.000000"
 preserveAspectRatio="xMidYMid meet">
<metadata>
Created by potrace 1.10, written by Peter Selinger 2001-2011
</metadata>
<g transform="translate(0.000000,250.000000) scale(0.100000,-0.100000)"
fill="#0d0c0c" stroke="none">
<path d="M1195 2470 c-11 -4 -40 -14 -65 -21 -48 -13 -98 -39 -141 -73 -15
-12 -41 -32 -59 -46 -17 -14 -43 -42 -56 -62 -22 -35 -24 -51 -33 -244 -10
-210 -9 -227 16 -255 12 -14 11 -21 -3 -45 -23 -40 -12 -130 23 -180 23 -35
25 -48 30 -191 5 -127 4 -153 -8 -153 -8 0 -36 -16 -63 -35 -53 -37 -230 -109
-472 -190 -138 -47 -254 -106 -284 -147 -34 -47 -30 -122 12 -190 129 -213
319 -388 543 -501 117 -59 207 -90 333 -117 90 -19 126 -21 305 -17 136 3 225
9 272 20 242 55 457 170 632 340 143 138 238 269 248 342 2 21 7 40 9 43 15
14 -75 132 -100 132 -7 0 -55 20 -107 45 -52 25 -102 45 -110 45 -9 0 -47 11
-84 25 -37 14 -126 46 -198 71 -128 44 -169 66 -232 121 -31 27 -32 31 -33
113 -1 55 4 99 14 125 8 22 15 49 16 59 0 11 11 39 25 62 21 35 25 54 23 104
-3 69 1 75 71 85 116 17 198 70 231 147 22 52 23 82 2 162 -16 61 -103 142
-182 169 -35 12 -67 29 -71 37 -4 8 -18 37 -31 64 -31 65 -95 120 -171 145
-48 17 -85 21 -171 20 -61 0 -120 -4 -131 -9z m298 -70 c49 -15 113 -72 126
-113 15 -44 11 -51 -24 -48 -53 4 -230 -27 -300 -54 -38 -14 -92 -38 -121 -54
-29 -16 -56 -26 -59 -23 -3 3 -5 32 -5 64 0 64 14 100 65 163 18 22 38 51 45
64 12 23 14 23 124 18 61 -3 128 -10 149 -17z m-324 -17 c-8 -10 -22 -26 -31
-37 -62 -69 -73 -96 -76 -190 l-3 -91 -87 -82 c-48 -46 -88 -83 -89 -83 -9 0
11 244 23 289 18 63 85 134 162 171 26 13 54 27 62 31 8 4 23 8 34 8 16 1 17
-1 5 -16z m-188 -588 c16 -9 54 -20 84 -26 30 -5 67 -16 82 -24 36 -19 47 -19
85 1 30 16 34 15 72 -4 41 -20 149 -49 218 -59 l38 -5 -7 -92 c-3 -50 -14
-109 -23 -131 -21 -47 -76 -125 -89 -125 -11 0 -20 55 -25 165 -3 44 -5 81 -5
82 -1 1 -17 11 -36 23 -30 19 -51 22 -138 22 -105 1 -131 -6 -174 -45 -21 -18
-23 -30 -23 -114 0 -54 -4 -93 -10 -93 -13 0 -55 66 -73 115 -12 31 -37 248
-37 313 0 16 25 15 61 -3z m194 -242 c-28 -7 -47 -25 -38 -34 4 -4 53 -9 108
-10 88 -2 100 -1 99 14 -3 30 13 18 20 -14 10 -50 7 -199 -4 -220 -13 -23 -52
-25 -70 -4 -7 8 -15 35 -18 60 -4 38 -1 50 18 70 13 14 22 27 19 29 -7 7 -118
10 -125 3 -4 -4 1 -16 11 -27 25 -27 27 -113 3 -136 -14 -14 -21 -15 -46 -5
-42 17 -52 49 -52 159 0 91 1 98 23 108 12 7 33 12 47 12 20 0 21 -1 5 -5z
m155 -3 c0 -7 -14 -8 -37 -4 -52 9 -54 14 -5 14 23 0 42 -5 42 -10z m-183
-327 c105 -51 211 -30 320 63 l53 46 0 -95 c0 -53 3 -102 6 -110 11 -30 -119
-149 -209 -192 -33 -15 -43 -16 -85 -5 -98 27 -173 67 -252 134 l-34 29 3 121
c2 67 5 124 7 128 3 4 34 -15 71 -42 36 -28 90 -62 120 -77z m163 -476 c66
-23 109 -55 130 -98 29 -55 50 -126 50 -166 0 -70 -48 -202 -84 -232 -32 -27
-19 -41 39 -41 52 0 55 -1 55 -25 l0 -26 -92 3 c-112 4 -118 12 -58 90 41 54
80 158 80 215 0 37 -31 133 -54 168 -42 64 -150 86 -218 46 -43 -27 -86 -93
-94 -148 -17 -114 12 -217 83 -296 55 -61 45 -72 -67 -72 -88 0 -95 1 -95 20
0 17 8 20 45 23 72 4 75 7 41 49 -53 67 -74 128 -74 220 0 69 4 91 27 137 30
61 85 114 129 123 15 3 30 10 33 14 8 13 83 11 124 -4z"/>
<path d="M1195 1686 c-10 -7 -16 -20 -12 -28 4 -13 21 -15 76 -14 39 1 74 5
77 9 4 4 -1 16 -11 27 -22 24 -100 28 -130 6z"/>
</g>
</svg>
